<?xml version="1.0" encoding="utf-8"?>
<!DOCTYPE svg PUBLIC "-//W3C//DTD SVG 20010904//EN" "http://www.w3.org/TR/2001/REC-SVG-20010904/DTD/svg10.dtd">
<svg version="1.0" xmlns="http://www.w3.org/2000/svg" width="240px" height="128px" viewBox="0 0 240 128" preserveAspectRatio="xMidYMid meet">
 <g fill="#7948b5">
  <path d="M121.5 104.6 c-2.3 -1.4 -5.1 -4.3 -6.5 -6.8 -2.1 -3.7 -2.5 -5.6 -2.5 -12.8 0 -10.2 2.3 -15.5 8.5 -19.6 3.5 -2.3 4.7 -2.6 10 -2.2 4.9 0.4 6.6 1 9.1 3.4 3.5 3.2 6.8 9.7 6.9 13.1 0 2.2 -0.3 2.3 -14.2 2.5 l-14.3 0.3 -0.3 4 c-0.6 8.6 7 17.5 15 17.5 4.6 0 7.2 -1.2 11.6 -5.3 4 -3.9 4.2 -2.3 0.2 2.1 -6 6.6 -16.2 8.2 -23.5 3.8z m20.3 -27.3 c0.8 -5.6 -6.2 -13.3 -12.1 -13.3 -5 0 -10.7 6.9 -10.7 13 l0 3.1 11.3 -0.3 c10.6 -0.3 11.2 -0.4 11.5 -2.5z"/>
  <path d="M160 106.4 c0 -0.1 -1.1 -3.1 -2.5 -6.8 -1.4 -3.6 -2.1 -6.6 -1.7 -6.6 0.4 0.1 1.9 1.8 3.4 4 3.3 4.8 9.8 8.3 15.6 8.4 3.6 0.1 4.8 -0.4 6.8 -2.7 5.2 -6.1 2.2 -10.6 -10 -15.2 -10.1 -3.8 -14.6 -7.8 -14.6 -13 0 -9.2 7.9 -13.9 17.9 -10.4 2.4 0.8 3.5 0.8 4.6 -0.1 1.2 -1 1.6 -0.8 2.4 1.1 0.5 1.3 1.6 4.1 2.5 6.3 0.9 2.1 1.6 4 1.6 4.2 0 0.1 -2.4 -2.1 -5.4 -5.1 -6.2 -6.2 -10.5 -7.6 -15.5 -5.1 -3.3 1.7 -4.7 5.1 -3.6 8.6 0.7 2.1 3.9 3.9 17.3 9.5 8.3 3.5 11.3 10.5 7.7 17.5 -2.5 4.8 -6 6 -16.9 5.7 -5.3 -0.1 -9.6 -0.3 -9.6 -0.3z"/>
  <path d="M198.8 104 c-1.6 -4 -3.8 -10.2 -3.8 -10.7 0 -0.2 2.4 2 5.3 5 6.3 6.4 12.6 8.8 17.7 6.7 3.6 -1.5 5 -3.7 5 -7.9 0 -4.1 -1.6 -5.3 -11.9 -9.6 -12.5 -5.2 -16 -9.5 -14 -17 1.3 -4.8 5.2 -7.5 10.5 -7.5 2.4 0 5.4 0.5 6.7 1.1 1.7 0.8 3 0.8 4.4 0 1.8 -0.9 2.2 -0.4 4.6 5.7 l2.7 6.7 -3.6 -4.3 c-3.9 -4.6 -9.9 -8.2 -13.7 -8.2 -3.9 0 -7.7 3.6 -7.7 7.4 0 4.3 1.8 5.8 11.9 9.7 4.6 1.8 9.6 4.5 11.1 5.9 5.3 5 5.2 11 -0.5 16.7 l-3.3 3.3 -10.2 -0.2 c-9.9 -0.3 -10.3 -0.4 -11.2 -2.8z"/>
  <path d="M4 105.2 c0 -0.6 1.6 -1.4 3.5 -1.8 6.3 -1.2 6.5 -1.9 6.5 -30.2 l0 -25.3 -2.5 -2.4 c-1.3 -1.4 -3.6 -2.5 -5 -2.5 -1.4 0 -2.5 -0.4 -2.5 -1 0 -1.4 26 -1.3 33.6 0.1 16.8 3.1 25.2 14.6 24.2 33.3 -0.5 9.9 -3 15.9 -9 21.9 -6.7 6.6 -11.2 7.8 -31.5 8.4 -12.1 0.4 -17.3 0.2 -17.3 -0.5z m36.3 -3.5 c13 -5.5 18.9 -25 13 -43.1 -2.1 -6.6 -7.7 -12.1 -14.4 -14 -7.3 -2.2 -14.1 -2.1 -17 0.3 -2.4 1.9 -2.4 2 -2.7 27.5 -0.3 26.8 0 28.9 4.1 30.7 2.8 1.2 12.7 0.3 17 -1.4z"/>
  <path d="M71.6 105.3 c-0.4 -0.4 1 -1.2 3.1 -1.8 3.5 -1 3.9 -1.4 4.5 -5.5 0.8 -5.7 0.8 -19 0 -25.5 -0.7 -4.8 -0.8 -5 -4.2 -5.5 l-3.5 -0.5 5.6 -1.8 c3.1 -0.9 5.9 -1.7 6.2 -1.7 0.4 0 0.7 1.8 0.7 3.9 0 2.2 0.5 4.3 1.1 4.6 0.5 0.4 3.2 -1.4 6 -4 4.3 -4 5.4 -4.6 8.6 -4.3 4.3 0.4 6.4 2.9 4.7 5.6 -1.5 2.3 -4.8 2.7 -6.4 0.7 -1.9 -2.3 -4.6 -1.8 -8.4 1.6 -4.4 3.8 -6 10.2 -5.5 21.8 0.5 9 1.7 11.1 6.7 11.1 1.3 0 2 0.4 1.7 1 -0.7 1.1 -19.8 1.4 -20.9 0.3z"/>
 </g>
</svg>